<svg id="Text" xmlns="http://www.w3.org/2000/svg" viewBox="0 0 1378.73 242.45"><defs><style>.cls-1{fill:#fff;}.cls-2{fill:#3a53a4;}.cls-3{fill:#f47621;}.cls-4{fill:#757576;}</style></defs><title>81-23122016-Logo-PAPTT-HOR-3-OL</title><path class="cls-1" d="M114.15,167.87l-1.25.65,1.25-.65"/><path class="cls-2" d="M228.4,161.86S284.67,117,322.75,141.7l-9.14-45.12c-2.92-15.07-11-8.86-11-8.86l-65.37,55.84s12.12-33.18-19.82-30l-0.54.05-1.15.13c-0.94.12-2,.28-3.09,0.5l-0.21,0c-1,.19-2.09.43-3.25,0.7l-0.43.09h0c-14.91,3.6-41.93,16.95-95.47,44.81,13.16-6.73,132.33-63.58,115.12,1.92"/><path class="cls-3" d="M366.54,202.4s34.32,7.39,50.26-9.26c0,0,6.49-7.28,2.85-23.71,0,0-13.74,21.3-87.81,1.88,0,0,5.63,27.73,34.7,31.08"/><path class="cls-3" d="M209.53,201.09s55-48.81,116.4-35.59c0,0-4.84-56.45-98.51,4.08l-5.5,4c1.95-6.15,10.45-38.46-27.14-31.73-14.53.79-46.58,10-117.35,46.86,0,0,148.11-71.18,132.1,12.34m11.64-26.91c0.06-.32.1-0.64,0.16-1,0,0.25.11,0.49,0.14,0.74Z"/><path class="cls-2" d="M337.16,146.45a22.51,22.51,0,0,0,9,2.38s50,10.91,71.2-5.76c0,0-4.22-32.22-13.69-49.54,0,0-4.77-3.48-13.64-5.5-29.35-9.16-75.75-11.84-75.75-11.84s7.29,6.78,13.06,42.19l4.51,20.24s1.44,6.29,5.33,7.83"/><path class="cls-4" d="M186.69,242.35l0,0.09h0v0l0,0c266.67-36.27,370.57-.63,370.57-0.63-17.69-10-37.58-14.34-58.72-20L493,208h0c-33-5.19-66.12-6.94-66.12-6.94a10.71,10.71,0,0,1-6.25,9.89c-38.65-2.91-77.58-1.82-112,.85a26.41,26.41,0,0,0,2.11-11.09c-0.21-10.85-6.38-19.5-13.8-19.3s-13.26,9.16-13.06,20a25.58,25.58,0,0,0,3.25,12.3c-15.5,1.57-29.69,3.38-42.07,5.15a21.41,21.41,0,0,0,.82-6.33c-0.16-8.44-5-15.15-10.72-15s-10.3,7.1-10.14,15.53a20.24,20.24,0,0,0,2,8.57c-18.34,3-30,5.46-31.92,5.88a78.13,78.13,0,0,0,4.76-13.21c1.06-3,18.8-55.76-41.3-41.23C135,176.34,88.85,190.42,0,236.76c0,0,206.86-100.45,186.69,5.59"/><path class="cls-4" d="M321,68.75h0s0.17-.35.52-1c3.36-6,23.76-38.36,83.65-55.46L411,14.51c-58,18.07-77.53,43.77-82.28,51.46a23,23,0,0,0-1.26,2.25h0l-0.44,1.12,5.37,0.59c0.29-.54.66-1.17,1.09-1.88l0.35,1.54,4.7,1.11,13.92,1.77,0,0c15,2.11,30.7,4.92,42.05,8.48a41.13,41.13,0,0,1,8,3,21.22,21.22,0,0,1,8.32,8.23c7,15.42,19.06,50.36,16.41,102.82,34.31,1.36,69,5.61,100.48,14.53-0.75-4.17-4.48-7.72-10-10.74V167l21.09-27.88V88l-24.26,8.87H489.76V90.52h24.17l56-21.23v-6H526.54L472.09,85.19V186.74l-6.66-1.3V80.58l73.34-28V46.95L486,35.19l-9.64-2.58L399.81,2.47,394.46,0s-64.64,20.06-87.57,67.53l5.35,0.42c2.28,0.2,5.26.46,8.76,0.8M486.33,181.31h4.06V107.8a31.28,31.28,0,0,1,15.78-1.3v5.12a26.4,26.4,0,0,0-13.42.72v2.72s8.95-2.36,13.42-.19v79a178.32,178.32,0,0,0-22.42-5.56Zm-50.41-99s10.14-4,21-1.73v6.8s-9.17-2.17-17.85,1V92s11.89-3.14,17.85-.24V184.4c-9.33-1.05-17-1.63-21-1.89V82.31ZM347.66,68.58l-13.35-1.7c0.91-1.37,2.06-3,3.51-4.79l0.14,1.2,10.73,3.84c-0.36.49-.71,1-1,1.46m3.79-4.87L339,60.7c1.45-1.71,3.17-3.57,5.17-5.52l0.07,1.45L354,60.95q-1.37,1.37-2.59,2.76m5.81-5.82-12-3.82q2.53-2.41,5.68-5v1l10,4.67c-1.27,1-2.51,2.08-3.69,3.13m7.4-6-12-4.14q2.83-2.23,6.17-4.53l0,1.29,9.77,4.57q-2,1.38-4,2.81m8.05-5.52-12.28-4.23q2.92-2,6.21-3.91l0,1,10,4.69c-1.33.8-2.65,1.63-4,2.46m8.43-5.07L368.73,37c2.16-1.24,4.44-2.48,6.85-3.73l0,1.27L385.19,39c-1.34.74-2.7,1.48-4,2.25m8.75-4.73L377.52,32.3c2.33-1.16,4.79-2.32,7.35-3.47l0,1.05,9.33,4.49c-1.43.71-2.88,1.44-4.32,2.18m9.36-4.6-12-4.17c2.56-1.1,5.21-2.19,8-3.27l0,1.05L404,29.77q-2.32,1-4.75,2.18m10-4.47-11.36-3.94q4.17-1.55,8.67-3l0,1.14,7.74,3.73c-1.58.65-3.27,1.36-5.06,2.12m17.41-6.87s-2.67.92-7,2.63l-10.38-3.6c2.37-.75,4.78-1.5,7.29-2.23Z"/><path class="cls-2" d="M604.8,193.43h3.77A12.42,12.42,0,0,1,613,194a4.49,4.49,0,0,1,2.13,1.83,5.65,5.65,0,0,1,.78,3,5.08,5.08,0,0,1-1,3.25,5.3,5.3,0,0,1-2.77,1.8,16,16,0,0,1-3.75.29v7.91H604.8V193.43Zm3.55,7.3h1.13a6.08,6.08,0,0,0,1.85-.19,1.64,1.64,0,0,0,.82-0.63,1.85,1.85,0,0,0,.3-1.06,1.7,1.7,0,0,0-.84-1.58,4.78,4.78,0,0,0-2.26-.37h-1v3.83Z"/><path class="cls-2" d="M619.39,193.43h10.19v3.48h-6.67v3.38h6.67v3.41h-6.67v4.91h6.67v3.49H619.39V193.43Z"/><path class="cls-2" d="M632.91,193.43h3.41l8,12.29V193.43h3.55V212.1h-3.42l-8-12.25V212.1h-3.55V193.43Z"/><path class="cls-2" d="M669.37,196.47l-2.5,2.48a7.4,7.4,0,0,0-5.54-2.51,6.33,6.33,0,0,0-4.62,1.83,6,6,0,0,0-1.86,4.44,6.15,6.15,0,0,0,1.93,4.58,6.57,6.57,0,0,0,4.77,1.88,5.84,5.84,0,0,0,3.11-.77,5.45,5.45,0,0,0,2-2.42h-5.41v-3.34h9.39l0,0.79a9.14,9.14,0,0,1-1.27,4.65,8.88,8.88,0,0,1-3.29,3.35,9.37,9.37,0,0,1-4.74,1.16,10.51,10.51,0,0,1-5.19-1.26,9.23,9.23,0,0,1-3.61-3.6,10,10,0,0,1-1.33-5,9.37,9.37,0,0,1,2.45-6.45,9.66,9.66,0,0,1,7.57-3.26,11.53,11.53,0,0,1,4.56.9A10.46,10.46,0,0,1,669.37,196.47Z"/><path class="cls-2" d="M679.66,193.43h3.6l7.18,18.67h-3.69l-1.46-3.85h-7.62l-1.52,3.85h-3.69Zm1.82,5L679,204.79h5Z"/><path class="cls-2" d="M693.21,193.43h3.41l8,12.29V193.43h3.55V212.1h-3.42l-8-12.25V212.1h-3.55V193.43Z"/><path class="cls-2" d="M729.67,196.47l-2.5,2.48a7.4,7.4,0,0,0-5.54-2.51,6.33,6.33,0,0,0-4.62,1.83,6,6,0,0,0-1.86,4.44,6.15,6.15,0,0,0,1.93,4.58,6.57,6.57,0,0,0,4.77,1.88,5.84,5.84,0,0,0,3.11-.77,5.45,5.45,0,0,0,2-2.42h-5.41v-3.34H731l0,0.79a9.14,9.14,0,0,1-1.27,4.65,8.88,8.88,0,0,1-3.29,3.35,9.37,9.37,0,0,1-4.74,1.16,10.51,10.51,0,0,1-5.19-1.26,9.24,9.24,0,0,1-3.61-3.6,10,10,0,0,1-1.33-5,9.37,9.37,0,0,1,2.45-6.45,9.66,9.66,0,0,1,7.57-3.26,11.53,11.53,0,0,1,4.56.9A10.45,10.45,0,0,1,729.67,196.47Z"/><path class="cls-2" d="M734.29,193.43h3.59v6.44l5.07-6.44h4.27l-6.52,8.33,7.16,10.34h-4.21l-5.76-8.3v8.3h-3.59V193.43Z"/><path class="cls-2" d="M750.26,193.43h3.57V205.5a6.25,6.25,0,0,0,.27,2.21,2.2,2.2,0,0,0,.9,1,2.84,2.84,0,0,0,1.52.39,3,3,0,0,0,1.62-.43,2.27,2.27,0,0,0,.94-1.1,8.16,8.16,0,0,0,.26-2.54V193.43h3.57v11.13a16.16,16.16,0,0,1-.32,3.91,5.54,5.54,0,0,1-1.21,2.11,5.64,5.64,0,0,1-2.06,1.5,7,7,0,0,1-2.72.49,6.56,6.56,0,0,1-3.54-.93,5.42,5.42,0,0,1-2.15-2.34,12.33,12.33,0,0,1-.65-4.74V193.43Z"/><path class="cls-2" d="M765.19,193.43h10.32v3.5h-3.4V212.1h-3.61V196.93h-3.31v-3.5Z"/><path class="cls-2" d="M783.65,193.43h3.6l7.18,18.67h-3.69l-1.46-3.85h-7.62l-1.52,3.85h-3.69Zm1.82,5L783,204.79h5Z"/><path class="cls-2" d="M797.2,193.43h3.41l8,12.29V193.43h3.55V212.1h-3.42l-8-12.25V212.1H797.2V193.43Z"/><path class="cls-2" d="M829.39,193.43H833l7.18,18.67h-3.69L835,208.25H827.4l-1.52,3.85h-3.69Zm1.82,5-2.51,6.41h5Z"/><path class="cls-2" d="M841.51,193.43H845l2.7,11.92L851,193.43h3l3.38,11.92,2.67-11.92h3.5l-4.21,18.67h-3.41L852.49,200l-3.38,12.07h-3.38Z"/><path class="cls-2" d="M872,193.43h3.6l7.18,18.67h-3.69l-1.46-3.85H870l-1.52,3.85h-3.69Zm1.82,5-2.51,6.41h5Z"/><path class="cls-2" d="M887.37,193.43h3.46l4.33,13,4.37-13H903l3.13,18.67h-3.44l-2-11.79-4,11.79h-3.13l-3.93-11.79L887.6,212.1h-3.47Z"/><path class="cls-2" d="M916.22,193.43H920a12.42,12.42,0,0,1,4.41.56,4.49,4.49,0,0,1,2.13,1.83,5.65,5.65,0,0,1,.78,3,5.08,5.08,0,0,1-1,3.25,5.3,5.3,0,0,1-2.77,1.8,16,16,0,0,1-3.75.29v7.91h-3.55V193.43Zm3.55,7.3h1.13a6.08,6.08,0,0,0,1.85-.19,1.64,1.64,0,0,0,.82-0.63,1.85,1.85,0,0,0,.3-1.06,1.7,1.7,0,0,0-.84-1.58,4.78,4.78,0,0,0-2.26-.37h-1v3.83Z"/><path class="cls-2" d="M930.66,193.43h3.57V205.5a6.25,6.25,0,0,0,.27,2.21,2.2,2.2,0,0,0,.9,1,2.84,2.84,0,0,0,1.52.39,3,3,0,0,0,1.62-.43,2.27,2.27,0,0,0,.94-1.1,8.16,8.16,0,0,0,.26-2.54V193.43h3.57v11.13a16.16,16.16,0,0,1-.32,3.91,5.54,5.54,0,0,1-1.21,2.11,5.64,5.64,0,0,1-2.06,1.5,7,7,0,0,1-2.72.49,6.56,6.56,0,0,1-3.54-.93,5.42,5.42,0,0,1-2.15-2.34,12.33,12.33,0,0,1-.65-4.74V193.43Z"/><path class="cls-2" d="M945.59,193.43h10.32v3.5h-3.4V212.1h-3.61V196.93h-3.31v-3.5Z"/><path class="cls-2" d="M958.59,193.43h3.77a12.42,12.42,0,0,1,4.41.55,4.51,4.51,0,0,1,2.11,1.83,5.62,5.62,0,0,1,.8,3,5.17,5.17,0,0,1-.88,3.08,5.36,5.36,0,0,1-2.66,1.87l4.42,8.3h-3.89l-4.2-7.91h-0.33v7.91h-3.55V193.43Zm3.55,7.3h1.11a4.36,4.36,0,0,0,2.33-.45,1.67,1.67,0,0,0,.64-1.48,1.81,1.81,0,0,0-.32-1.06,1.76,1.76,0,0,0-.85-0.65,6.43,6.43,0,0,0-1.95-.2h-1v3.83Z"/><path class="cls-2" d="M979.13,193.43h3.61l7.18,18.67h-3.69l-1.46-3.85h-7.62l-1.52,3.85h-3.69Zm1.82,5-2.5,6.41h5Z"/><path class="cls-2" d="M997.31,193.43h3.57v12.39a12.63,12.63,0,0,1-.47,4.15,3.92,3.92,0,0,1-1.55,1.9,4.62,4.62,0,0,1-2.59.71,6.53,6.53,0,0,1-5.26-2.7l2.56-2.4a6.12,6.12,0,0,0,1.45,1.29,2.39,2.39,0,0,0,1.16.33,0.92,0.92,0,0,0,.85-0.48,5,5,0,0,0,.28-2.12V193.43Z"/><path class="cls-2" d="M1010.84,193.43h3.61l7.18,18.67h-3.69l-1.46-3.85h-7.62l-1.52,3.85h-3.69Zm1.82,5-2.51,6.41h5Z"/><path class="cls-2" d="M1023.05,193.43h3.82l3.48,6.72,3.47-6.72h3.77L1032.12,204v8.09h-3.58V204Z"/><path class="cls-2" d="M1046.2,193.43h3.61L1057,212.1h-3.7l-1.46-3.85h-7.62l-1.52,3.85H1039Zm1.83,5-2.51,6.41h5Z"/><path class="cls-2" d="M1065.17,193.43h10.32v3.5h-3.4V212.1h-3.61V196.93h-3.31v-3.5Z"/><path class="cls-2" d="M1078.17,193.43h3.77a12.42,12.42,0,0,1,4.41.55,4.51,4.51,0,0,1,2.11,1.83,5.61,5.61,0,0,1,.8,3,5.17,5.17,0,0,1-.88,3.08,5.37,5.37,0,0,1-2.66,1.87l4.42,8.3h-3.89l-4.2-7.91h-0.32v7.91h-3.55V193.43Zm3.55,7.3h1.11a4.36,4.36,0,0,0,2.34-.45,1.68,1.68,0,0,0,.64-1.48,1.8,1.8,0,0,0-.32-1.06,1.76,1.76,0,0,0-.85-0.65,6.43,6.43,0,0,0-1.95-.2h-1v3.83Z"/><path class="cls-2" d="M1098.71,193.43h3.61l7.18,18.67h-3.7l-1.46-3.85h-7.62l-1.52,3.85h-3.7Zm1.83,5-2.51,6.41h5Z"/><path class="cls-2" d="M1110.83,193.43h3.65l4.7,13.27,4.77-13.27h3.65l-6.73,18.67h-3.43Z"/><path class="cls-2" d="M1130.46,193.43h10.2v3.48H1134v3.38h6.67v3.41H1134v4.91h6.67v3.49h-10.2V193.43Z"/><path class="cls-2" d="M1144,193.43h3.55v15.29h5.18v3.39H1144V193.43Z"/><path class="cls-2" d="M1174.39,204.76l2.12,2.42-1,.88-0.95.86,3,3.18h-4.31l-1.23-1.27a10.9,10.9,0,0,1-5.47,1.74,4.84,4.84,0,0,1-3.47-1.26,4.24,4.24,0,0,1-1.33-3.22,5.57,5.57,0,0,1,.75-2.81,9.77,9.77,0,0,1,2.57-2.73,7.54,7.54,0,0,1-1.8-4.29,4.11,4.11,0,0,1,1.19-2.73,4.9,4.9,0,0,1,6.73,0,4.08,4.08,0,0,1,1.17,2.69,4.17,4.17,0,0,1-.54,2,15.38,15.38,0,0,1-2.48,2.89q2.27,2.68,2.93,3.34Q1172.73,206.18,1174.39,204.76Zm-4.64,3.6a38.88,38.88,0,0,1-2.76-3.19q-1.88,1.56-1.88,2.73a1.33,1.33,0,0,0,.51,1,1.88,1.88,0,0,0,1.3.46A6,6,0,0,0,1169.75,208.36Zm-2.12-7.71a3.21,3.21,0,0,0,1.41-2.13,1,1,0,0,0-.32-0.79,1.16,1.16,0,0,0-.84-0.3,1.16,1.16,0,0,0-1.15,1.14A3.58,3.58,0,0,0,1167.63,200.65Z"/><path class="cls-2" d="M1185.8,193.43h10.32v3.5h-3.4V212.1h-3.61V196.93h-3.31v-3.5Z"/><path class="cls-2" d="M1207.38,193a9.27,9.27,0,0,1,6.81,2.87,9.55,9.55,0,0,1,2.85,7,9.44,9.44,0,0,1-2.81,6.92,9.75,9.75,0,0,1-13.81-.08A9.81,9.81,0,0,1,1207.38,193Zm0,3.48a5.86,5.86,0,0,0-4.36,1.8,6.28,6.28,0,0,0-1.77,4.58,6,6,0,0,0,2.22,4.9,6.1,6.1,0,0,0,4,1.41,5.79,5.79,0,0,0,4.31-1.83,6.59,6.59,0,0,0,0-9A5.85,5.85,0,0,0,1207.34,196.43Z"/><path class="cls-2" d="M1220.27,193.43h3.57V205.5a6.22,6.22,0,0,0,.27,2.21,2.2,2.2,0,0,0,.9,1,2.84,2.84,0,0,0,1.52.39,3,3,0,0,0,1.62-.43,2.28,2.28,0,0,0,.94-1.1,8.21,8.21,0,0,0,.26-2.54V193.43h3.57v11.13a16.19,16.19,0,0,1-.32,3.91,5.55,5.55,0,0,1-1.21,2.11,5.64,5.64,0,0,1-2.06,1.5,7,7,0,0,1-2.72.49,6.56,6.56,0,0,1-3.54-.93,5.42,5.42,0,0,1-2.15-2.34,12.32,12.32,0,0,1-.65-4.74V193.43Z"/><path class="cls-2" d="M1237.28,193.43H1241a12.42,12.42,0,0,1,4.41.55,4.51,4.51,0,0,1,2.11,1.83,5.63,5.63,0,0,1,.8,3,5.17,5.17,0,0,1-.88,3.08,5.36,5.36,0,0,1-2.66,1.87l4.43,8.3h-3.89l-4.2-7.91h-0.33v7.91h-3.55V193.43Zm3.55,7.3h1.12a4.35,4.35,0,0,0,2.33-.45,1.67,1.67,0,0,0,.64-1.48,1.81,1.81,0,0,0-.32-1.06,1.76,1.76,0,0,0-.85-0.65,6.42,6.42,0,0,0-1.95-.2h-1v3.83Z"/><path class="cls-2" d="M1261.92,196l-2.63,2.32q-1.39-1.93-2.82-1.93a1.72,1.72,0,0,0-1.14.37,1.09,1.09,0,0,0-.45.84,1.44,1.44,0,0,0,.32.89,24.4,24.4,0,0,0,2.61,2.4q2,1.7,2.47,2.15a7.46,7.46,0,0,1,1.53,2.09,5.21,5.21,0,0,1,.45,2.18,5,5,0,0,1-1.59,3.8,5.79,5.79,0,0,1-4.14,1.5,6.17,6.17,0,0,1-3.48-1,7.72,7.72,0,0,1-2.54-3.07l3-1.8q1.35,2.48,3.1,2.48a2.28,2.28,0,0,0,1.54-.53,1.58,1.58,0,0,0,.62-1.23,2.12,2.12,0,0,0-.47-1.27,13.53,13.53,0,0,0-2.07-1.94,21,21,0,0,1-3.94-3.84,4.89,4.89,0,0,1-.89-2.7,4.41,4.41,0,0,1,1.48-3.33,5.14,5.14,0,0,1,3.65-1.39,5.76,5.76,0,0,1,2.66.65A9.71,9.71,0,0,1,1261.92,196Z"/><path class="cls-2" d="M1282.72,196l-2.63,2.32q-1.39-1.93-2.82-1.93a1.72,1.72,0,0,0-1.14.37,1.09,1.09,0,0,0-.45.84,1.44,1.44,0,0,0,.32.89,24.4,24.4,0,0,0,2.61,2.4q2,1.7,2.47,2.15a7.46,7.46,0,0,1,1.53,2.09,5.21,5.21,0,0,1,.45,2.18,5,5,0,0,1-1.59,3.8,5.79,5.79,0,0,1-4.14,1.5,6.17,6.17,0,0,1-3.48-1,7.72,7.72,0,0,1-2.54-3.07l3-1.8q1.35,2.48,3.1,2.48a2.28,2.28,0,0,0,1.54-.53,1.58,1.58,0,0,0,.62-1.23,2.12,2.12,0,0,0-.47-1.27,13.53,13.53,0,0,0-2.07-1.94,21,21,0,0,1-3.94-3.84,4.89,4.89,0,0,1-.89-2.7,4.41,4.41,0,0,1,1.48-3.33,5.14,5.14,0,0,1,3.65-1.39,5.76,5.76,0,0,1,2.66.65A9.71,9.71,0,0,1,1282.72,196Z"/><path class="cls-2" d="M1286.45,193.43h4.21a13.87,13.87,0,0,1,6.05,1,7.89,7.89,0,0,1,3.26,3.28,11.5,11.5,0,0,1,.56,9.27,8.26,8.26,0,0,1-2,3,7,7,0,0,1-2.73,1.65,19.46,19.46,0,0,1-5.1.46h-4.27V193.43Zm3.53,3.43v11.78h1.65a8.26,8.26,0,0,0,3.54-.56,4.24,4.24,0,0,0,1.8-1.88,6.91,6.91,0,0,0,.7-3.25,6.19,6.19,0,0,0-1.66-4.61q-1.5-1.48-4.81-1.47H1290Z"/><path class="cls-2" d="M1304.65,193.43h3.41l8,12.29V193.43h3.55V212.1h-3.42l-8-12.25V212.1h-3.55V193.43Z"/><path class="cls-2" d="M1331.15,212.1V193.43h2.94a15.23,15.23,0,0,1,3.74.33,5,5,0,0,1,2.67,1.65,4.34,4.34,0,0,1,1,2.84,4.16,4.16,0,0,1-.45,1.94,4.94,4.94,0,0,1-1.47,1.63,5.86,5.86,0,0,1,2.49,2,5.07,5.07,0,0,1,.79,2.84,5.28,5.28,0,0,1-.81,2.87,5.18,5.18,0,0,1-2.1,1.94,8.06,8.06,0,0,1-3.55.64h-5.24Zm3.55-15.29v3.94h0.78a2.9,2.9,0,0,0,1.93-.55,1.87,1.87,0,0,0,.63-1.49,1.74,1.74,0,0,0-.6-1.39,2.74,2.74,0,0,0-1.82-.51h-0.92Zm0,7.11v4.79h0.89a5.51,5.51,0,0,0,3-.56,1.88,1.88,0,0,0,.77-1.62,2.28,2.28,0,0,0-.9-1.9,5,5,0,0,0-3-.7h-0.74Z"/><path class="cls-2" d="M1346.22,193.43h3.61v7h6.23v-7h3.59V212.1h-3.59v-8.19h-6.23v8.19h-3.61V193.43Z"/><path class="cls-2" d="M1363.93,193.43h4.21a13.86,13.86,0,0,1,6.05,1,7.87,7.87,0,0,1,3.26,3.28A11.5,11.5,0,0,1,1378,207a8.21,8.21,0,0,1-2,3,7,7,0,0,1-2.73,1.65,19.48,19.48,0,0,1-5.1.46h-4.28V193.43Zm3.53,3.43v11.78h1.65a8.27,8.27,0,0,0,3.54-.56,4.23,4.23,0,0,0,1.79-1.88,6.88,6.88,0,0,0,.7-3.25,6.18,6.18,0,0,0-1.66-4.61q-1.5-1.48-4.81-1.47h-1.21Z"/><path class="cls-2" d="M1304,220.29a22.63,22.63,0,0,0-1.63,2.88,21.4,21.4,0,0,0-1.09,2.79,18.39,18.39,0,0,0-.61,2.64,16.21,16.21,0,0,0-.19,2.42c0,0.31,0,.64,0,1s0,0.69.09,1,0.09,0.7.15,1,0.13,0.66.21,1a0.61,0.61,0,0,1,0,.18,0.16,0.16,0,0,1-.07.12,0.43,0.43,0,0,1-.19.07l-0.35,0h-0.26l-0.19,0-0.11-.06a0.2,0.2,0,0,1-.06-0.08,15.78,15.78,0,0,1-.52-2.15,14.27,14.27,0,0,1-.2-2.46,16,16,0,0,1,.18-2.36,15.67,15.67,0,0,1,.6-2.53,19.81,19.81,0,0,1,1.12-2.71,22.67,22.67,0,0,1,1.72-2.88,0.34,0.34,0,0,1,.09-0.11,0.5,0.5,0,0,1,.15-0.07l0.23,0h0.34a1.61,1.61,0,0,1,.33,0,0.54,0.54,0,0,1,.19.07,0.13,0.13,0,0,1,.07.11A0.25,0.25,0,0,1,1304,220.29Z"/><path class="cls-2" d="M1311.9,228.87a1,1,0,0,1,0,.16,1.78,1.78,0,0,1,0,.19,1.5,1.5,0,0,1-.07.21,0.79,0.79,0,0,1-.1.18,0.55,0.55,0,0,1-.13.13,0.26,0.26,0,0,1-.15,0h-1.28l-0.47,2.39a0.26,0.26,0,0,1-.06.12,0.34,0.34,0,0,1-.14.08l-0.24.05-0.36,0-0.36,0a0.73,0.73,0,0,1-.21-0.05,0.21,0.21,0,0,1-.1-0.08,0.14,0.14,0,0,1,0-.12l0.47-2.39H1304a0.31,0.31,0,0,1-.24-0.08,0.37,0.37,0,0,1-.07-0.24s0-.09,0-0.16a1.89,1.89,0,0,1,0-.21c0-.08,0-0.16.06-0.24s0-.17.08-0.25a2.16,2.16,0,0,1,.1-0.24,1.13,1.13,0,0,1,.14-0.21l5.48-6.92a0.44,0.44,0,0,1,.15-0.12,1.05,1.05,0,0,1,.25-0.09,2,2,0,0,1,.35,0h0.47l0.5,0,0.34,0.06a0.43,0.43,0,0,1,.19.09,0.16,0.16,0,0,1,0,.14l-1.46,7.26h1.28a0.19,0.19,0,0,1,.18.09A0.48,0.48,0,0,1,1311.9,228.87Zm-1.77-6.5h0l-4.88,6.16h3.67Z"/><path class="cls-2" d="M1320.73,229.11a3.26,3.26,0,0,1-.11.81,3.17,3.17,0,0,1-.33.8,3.25,3.25,0,0,1-.58.72,3.57,3.57,0,0,1-.85.59,5,5,0,0,1-1.14.39,6.65,6.65,0,0,1-1.46.15,5.36,5.36,0,0,1-1.48-.18,3,3,0,0,1-1-.5,2,2,0,0,1-.6-0.75,2.17,2.17,0,0,1-.2-0.92,2.93,2.93,0,0,1,.21-1.12,3.28,3.28,0,0,1,.62-1,5.3,5.3,0,0,1,1-.85,10.19,10.19,0,0,1,1.39-.75,3.62,3.62,0,0,1-1.25-1.07,2.31,2.31,0,0,1-.39-1.31,3.14,3.14,0,0,1,.1-0.79,3,3,0,0,1,.31-0.76,3.11,3.11,0,0,1,.53-0.68,3.27,3.27,0,0,1,.77-0.55,4.27,4.27,0,0,1,1-.37,5.56,5.56,0,0,1,1.28-.14,4.27,4.27,0,0,1,1.46.21,2.64,2.64,0,0,1,.91.53,1.76,1.76,0,0,1,.47.7,2.26,2.26,0,0,1,.13.74,2.81,2.81,0,0,1-.21,1.08,3.43,3.43,0,0,1-.57.93,4.51,4.51,0,0,1-.89.78,9,9,0,0,1-1.16.66,7.15,7.15,0,0,1,.93.6,3.36,3.36,0,0,1,.63.62,2.35,2.35,0,0,1,.36.66A2.29,2.29,0,0,1,1320.73,229.11Zm-1.55.12a1.46,1.46,0,0,0-.1-0.53,1.64,1.64,0,0,0-.32-0.5,3.38,3.38,0,0,0-.58-0.5q-0.35-.25-0.86-0.53a10.93,10.93,0,0,0-1.38.71,4.51,4.51,0,0,0-.87.69,2.08,2.08,0,0,0-.46.7,2.15,2.15,0,0,0-.13.75,1.41,1.41,0,0,0,.1.51,1.05,1.05,0,0,0,.33.44,1.64,1.64,0,0,0,.61.3,3.46,3.46,0,0,0,1,.11,3.6,3.6,0,0,0,1.22-.18,2.43,2.43,0,0,0,.84-0.49A1.86,1.86,0,0,0,1319,230,2.14,2.14,0,0,0,1319.19,229.23Zm0.84-6a1.19,1.19,0,0,0-.08-0.43,1,1,0,0,0-.27-0.39,1.37,1.37,0,0,0-.5-0.27,2.55,2.55,0,0,0-.77-0.1,2.78,2.78,0,0,0-1.05.18,2.19,2.19,0,0,0-.72.46,1.7,1.7,0,0,0-.41.63,2,2,0,0,0-.13.69,2.06,2.06,0,0,0,.06.51,1.24,1.24,0,0,0,.21.44,2.11,2.11,0,0,0,.45.44,7.33,7.33,0,0,0,.78.49,9.43,9.43,0,0,0,1-.56,3.89,3.89,0,0,0,.76-0.62,2.55,2.55,0,0,0,.48-0.69A1.85,1.85,0,0,0,1320,223.23Z"/><path class="cls-2" d="M1329.56,228.77a3.69,3.69,0,0,1-.11.88,3.44,3.44,0,0,1-.35.87,3.8,3.8,0,0,1-.6.79,3.54,3.54,0,0,1-.88.65,4.88,4.88,0,0,1-1.17.44,6.8,6.8,0,0,1-2.33.11,5.82,5.82,0,0,1-.74-0.15,4.1,4.1,0,0,1-.63-0.22,3.67,3.67,0,0,1-.51-0.28,0.48,0.48,0,0,1-.19-0.19,0.53,0.53,0,0,1-.06-0.25s0-.08,0-0.14,0-.13,0-0.2,0-.15,0-0.22a1.22,1.22,0,0,1,.07-0.21,0.48,0.48,0,0,1,.1-0.15,0.18,0.18,0,0,1,.13-0.06,0.69,0.69,0,0,1,.29.14,4.91,4.91,0,0,0,.54.3,5.25,5.25,0,0,0,.79.3,3.61,3.61,0,0,0,1,.14,3.28,3.28,0,0,0,1.28-.23,2.72,2.72,0,0,0,.89-0.58,2.38,2.38,0,0,0,.69-1.66,1.72,1.72,0,0,0-.13-0.66,1.36,1.36,0,0,0-.4-0.53,2.11,2.11,0,0,0-.72-0.36,3.79,3.79,0,0,0-1.07-.13h-1.22a0.29,0.29,0,0,1-.22-0.08,0.33,0.33,0,0,1-.07-0.24,1.07,1.07,0,0,1,0-.16,1.19,1.19,0,0,1,0-.19,1.58,1.58,0,0,1,.07-0.19,0.8,0.8,0,0,1,.1-0.18,0.46,0.46,0,0,1,.13-0.12,0.31,0.31,0,0,1,.17,0h1a3.46,3.46,0,0,0,1.2-.2,2.84,2.84,0,0,0,.94-0.54,2.54,2.54,0,0,0,.61-0.8,2.22,2.22,0,0,0,.22-1,1.34,1.34,0,0,0-.36-1,1.62,1.62,0,0,0-1.18-.36,3,3,0,0,0-1,.15,7.27,7.27,0,0,0-.83.33c-0.25.12-.46,0.23-0.63,0.34a0.89,0.89,0,0,1-.36.16,0.14,0.14,0,0,1-.12-0.08,0.4,0.4,0,0,1,0-.21,1.66,1.66,0,0,1,0-.2,2.46,2.46,0,0,1,.06-0.28,1.91,1.91,0,0,1,.11-0.29,0.82,0.82,0,0,1,.15-0.23,2,2,0,0,1,.38-0.26,4.77,4.77,0,0,1,.69-0.32,6.37,6.37,0,0,1,.91-0.26,4.9,4.9,0,0,1,1-.11,4.12,4.12,0,0,1,1.22.16,2.35,2.35,0,0,1,.87.46,1.9,1.9,0,0,1,.51.74,2.61,2.61,0,0,1,.17,1,3.35,3.35,0,0,1-.2,1.16,3.1,3.1,0,0,1-.56,1,3.63,3.63,0,0,1-2,1.16v0a2.72,2.72,0,0,1,1,.28,2.11,2.11,0,0,1,.66.53,2,2,0,0,1,.37.69A2.71,2.71,0,0,1,1329.56,228.77Z"/><path class="cls-2" d="M1332.19,225.54a5.34,5.34,0,0,1,.11-1,5.08,5.08,0,0,1,.33-1.06,4.86,4.86,0,0,1,.58-1,3.83,3.83,0,0,1,.86-0.83,4.25,4.25,0,0,1,1.17-.57,5,5,0,0,1,1.51-.21,3.46,3.46,0,0,1,1.35.23,2.38,2.38,0,0,1,.9.65,2.51,2.51,0,0,1,.51,1,4.88,4.88,0,0,1,.15,1.25c0,0.23,0,.53,0,0.89s-0.08.77-.15,1.22a14.31,14.31,0,0,1-.31,1.41,9.81,9.81,0,0,1-.53,1.46,8.11,8.11,0,0,1-.79,1.37,5.46,5.46,0,0,1-1.09,1.15,5.14,5.14,0,0,1-1.46.79,5.58,5.58,0,0,1-1.87.29l-0.56,0-0.51-.07-0.45-.11-0.38-.12a0.78,0.78,0,0,1-.28-0.18,0.37,0.37,0,0,1-.07-0.25s0-.08,0-0.14,0-.12,0-0.19a1.4,1.4,0,0,1,0-.19,1,1,0,0,1,.07-0.18,0.38,0.38,0,0,1,.1-0.13,0.21,0.21,0,0,1,.14,0,0.79,0.79,0,0,1,.26.06l0.41,0.14a4.7,4.7,0,0,0,.58.14,4.25,4.25,0,0,0,.76.06,3.55,3.55,0,0,0,1.56-.32,3.72,3.72,0,0,0,1.16-.87,5.09,5.09,0,0,0,.84-1.28,9.11,9.11,0,0,0,.55-1.55,6.84,6.84,0,0,1-1.18.47,5.09,5.09,0,0,1-1.49.2,3.88,3.88,0,0,1-1.29-.19,2.3,2.3,0,0,1-.87-0.52,2,2,0,0,1-.49-0.78A2.93,2.93,0,0,1,1332.19,225.54Zm1.54-.19a1.94,1.94,0,0,0,.09.6,1.1,1.1,0,0,0,.29.47,1.35,1.35,0,0,0,.52.3,2.5,2.5,0,0,0,.78.11,3.9,3.9,0,0,0,.66-0.06,4.67,4.67,0,0,0,.66-0.16,5.8,5.8,0,0,0,.62-0.23,5,5,0,0,0,.56-0.29q0.11-.61.17-1.11a8,8,0,0,0,.06-0.89,2.28,2.28,0,0,0-.43-1.55,1.58,1.58,0,0,0-1.23-.47,2.43,2.43,0,0,0-.85.14,2.38,2.38,0,0,0-.69.4,3,3,0,0,0-.53.58,3.61,3.61,0,0,0-.38.7,4.09,4.09,0,0,0-.22.74A3.6,3.6,0,0,0,1333.72,225.35Z"/><path class="cls-2" d="M1348,228.06a4.66,4.66,0,0,1-.14,1.12,4.51,4.51,0,0,1-.4,1.05,4.13,4.13,0,0,1-.68.93,4.22,4.22,0,0,1-1,.74,5,5,0,0,1-1.25.49,6.35,6.35,0,0,1-1.55.18,6,6,0,0,1-.76,0,6.76,6.76,0,0,1-.69-0.13,5.1,5.1,0,0,1-.6-0.18l-0.49-.21a0.43,0.43,0,0,1-.18-0.15,0.43,0.43,0,0,1-.06-0.23s0-.08,0-0.14a2,2,0,0,1,0-.2c0-.07,0-0.15.05-0.22a1.44,1.44,0,0,1,.08-0.21,0.59,0.59,0,0,1,.1-0.16,0.18,0.18,0,0,1,.14-0.06,0.59,0.59,0,0,1,.26.11,3.48,3.48,0,0,0,.47.24,5.05,5.05,0,0,0,.72.24,4,4,0,0,0,1,.11,3.7,3.7,0,0,0,1.44-.26,3,3,0,0,0,1-.69,2.78,2.78,0,0,0,.61-1,3.45,3.45,0,0,0,.2-1.18,1.63,1.63,0,0,0-.11-0.59,1.16,1.16,0,0,0-.39-0.49,2.09,2.09,0,0,0-.73-0.33,4.53,4.53,0,0,0-1.12-.12,9.06,9.06,0,0,0-1.07.05,6.57,6.57,0,0,1-.78.05,0.36,0.36,0,0,1-.32-0.11,0.63,0.63,0,0,1,0-.44l0.93-4.63a0.71,0.71,0,0,1,.22-0.43,0.61,0.61,0,0,1,.42-0.14h5a0.22,0.22,0,0,1,.18.08,0.4,0.4,0,0,1,.06.25,1.07,1.07,0,0,1,0,.16,2.05,2.05,0,0,1,0,.21,1.71,1.71,0,0,1-.07.22,1,1,0,0,1-.09.2,0.53,0.53,0,0,1-.13.15,0.28,0.28,0,0,1-.17.06h-4.25l-0.63,3.19,0.57-.05,0.58,0a5.67,5.67,0,0,1,1.64.21,3.13,3.13,0,0,1,1.09.56,2.06,2.06,0,0,1,.61.83A2.72,2.72,0,0,1,1348,228.06Z"/><path class="cls-2" d="M1357.46,227.88a5.14,5.14,0,0,1-.11,1A5.27,5.27,0,0,1,1357,230a4.84,4.84,0,0,1-.58,1,3.81,3.81,0,0,1-.86.83,4.26,4.26,0,0,1-1.17.57,5,5,0,0,1-1.51.21,3.46,3.46,0,0,1-1.35-.23,2.37,2.37,0,0,1-.9-0.65,2.49,2.49,0,0,1-.51-1,4.87,4.87,0,0,1-.15-1.26q0-.34,0-0.89t0.15-1.22a14.14,14.14,0,0,1,.31-1.41,9.81,9.81,0,0,1,.52-1.45,8.77,8.77,0,0,1,.77-1.37,5.42,5.42,0,0,1,1.06-1.15,4.89,4.89,0,0,1,1.41-.79,5.12,5.12,0,0,1,1.79-.29,5.53,5.53,0,0,1,1,.09,5,5,0,0,1,.8.21,0.76,0.76,0,0,1,.29.18,0.4,0.4,0,0,1,.07.25,1.44,1.44,0,0,1,0,.15c0,0.06,0,.12,0,0.18a1.55,1.55,0,0,1,0,.19,1.12,1.12,0,0,1-.07.18,0.38,0.38,0,0,1-.1.13,0.2,0.2,0,0,1-.14,0,0.65,0.65,0,0,1-.24-0.06l-0.37-.14a4.58,4.58,0,0,0-.55-0.14,4,4,0,0,0-.75-0.06,3.19,3.19,0,0,0-1.48.33,3.86,3.86,0,0,0-1.14.89,5.34,5.34,0,0,0-.83,1.28,7.65,7.65,0,0,0-.52,1.52,6.5,6.5,0,0,1,1.17-.47,5.14,5.14,0,0,1,1.5-.2,3.81,3.81,0,0,1,1.3.19,2.44,2.44,0,0,1,.88.52,2,2,0,0,1,.5.78A2.88,2.88,0,0,1,1357.46,227.88Zm-1.55.19a1.83,1.83,0,0,0-.09-0.6,1.16,1.16,0,0,0-.29-0.47,1.28,1.28,0,0,0-.52-0.29,2.62,2.62,0,0,0-.77-0.1,4.31,4.31,0,0,0-.66.05,4.62,4.62,0,0,0-.66.15,5.43,5.43,0,0,0-.62.24,5.83,5.83,0,0,0-.56.29,11,11,0,0,0-.17,1.1q0,0.49,0,.89a2.25,2.25,0,0,0,.43,1.54,1.6,1.6,0,0,0,1.23.46,2.38,2.38,0,0,0,1.55-.54,2.63,2.63,0,0,0,.53-0.58,3.68,3.68,0,0,0,.37-0.69,4,4,0,0,0,.22-0.74A3.65,3.65,0,0,0,1355.91,228.07Z"/><path class="cls-2" d="M1363.18,227.65s0,0.08,0,.14a1,1,0,0,1,0,.19c0,0.07,0,.13-0.06.2a1.28,1.28,0,0,1-.08.19,0.43,0.43,0,0,1-.12.14,0.28,0.28,0,0,1-.16.05H1359a0.19,0.19,0,0,1-.17-0.08,0.43,0.43,0,0,1-.05-0.24s0-.07,0-0.13a1.56,1.56,0,0,1,0-.19,1.81,1.81,0,0,1,.06-0.21,0.86,0.86,0,0,1,.09-0.19,0.48,0.48,0,0,1,.12-0.13,0.27,0.27,0,0,1,.16,0H1363a0.18,0.18,0,0,1,.17.08A0.4,0.4,0,0,1,1363.18,227.65Z"/><path class="cls-2" d="M1373,223.7a4.7,4.7,0,0,1-.11,1,4.42,4.42,0,0,1-.35,1,4.54,4.54,0,0,1-.6.92,3.94,3.94,0,0,1-.88.77,4.34,4.34,0,0,1-1.19.52,5.87,5.87,0,0,1-1.59.19h-1.56l-0.82,4.1a0.31,0.31,0,0,1-.06.11,0.3,0.3,0,0,1-.15.08l-0.25.05-0.36,0-0.34,0-0.22,0a0.2,0.2,0,0,1-.11-0.08,0.15,0.15,0,0,1,0-.12l2.09-10.5a0.75,0.75,0,0,1,.29-0.5,0.88,0.88,0,0,1,.51-0.15h2.24q0.44,0,.78,0a5.18,5.18,0,0,1,.66.1,3,3,0,0,1,.86.33,2.26,2.26,0,0,1,1.05,1.28A2.93,2.93,0,0,1,1373,223.7Zm-1.6.16a1.62,1.62,0,0,0-.27-0.94,1.43,1.43,0,0,0-.83-0.55,2.21,2.21,0,0,0-.47-0.08l-0.54,0h-1.42l-0.9,4.56h1.43a3.43,3.43,0,0,0,1.05-.14,2.84,2.84,0,0,0,.76-0.37,2.36,2.36,0,0,0,.55-0.54,3.32,3.32,0,0,0,.36-0.64,3.27,3.27,0,0,0,.21-0.67A3.23,3.23,0,0,0,1371.44,223.85Z"/><path class="cls-2" d="M1372.71,235.07a22.2,22.2,0,0,0,1.63-2.87,21.34,21.34,0,0,0,1.09-2.8,18.88,18.88,0,0,0,.61-2.65,16.14,16.14,0,0,0,.19-2.42c0-.31,0-0.64,0-1s-0.05-.69-0.09-1-0.09-.69-0.15-1-0.13-.66-0.21-1a0.45,0.45,0,0,1,0-.17,0.2,0.2,0,0,1,.07-0.13,0.36,0.36,0,0,1,.19-0.07l0.35,0h0.27l0.18,0a0.27,0.27,0,0,1,.11.06,0.22,0.22,0,0,1,.05.09,16,16,0,0,1,.53,2.14,14.12,14.12,0,0,1,.2,2.47,16.18,16.18,0,0,1-.18,2.35,15.61,15.61,0,0,1-.61,2.53,20.65,20.65,0,0,1-1.12,2.71,22.87,22.87,0,0,1-1.72,2.89l-0.1.1a0.51,0.51,0,0,1-.15.07l-0.23,0h-0.34a1.61,1.61,0,0,1-.33,0,0.51,0.51,0,0,1-.18-0.07,0.13,0.13,0,0,1-.06-0.11A0.31,0.31,0,0,1,1372.71,235.07Z"/><path class="cls-2" d="M723.57,153.36a68.27,68.27,0,0,0-1.34,8.87,30.31,30.31,0,0,0,.21,7.06,19.68,19.68,0,0,0,1.85,5.82,23.33,23.33,0,0,0,3.58,5.15H667.24a38.33,38.33,0,0,0,5.83-4,18.61,18.61,0,0,0,3.87-4.77,31,31,0,0,0,2.84-7q1.18-4.1,2.55-10.59L699.15,74q1-4.58,1.48-7.54a46.56,46.56,0,0,0,.64-5.06,21.77,21.77,0,0,0,0-3.43,13.48,13.48,0,0,0-.67-2.86,10.8,10.8,0,0,0-1.89-4.1,25.71,25.71,0,0,0-3.54-3.34h56.39q10.18,0,17.09.38a95.07,95.07,0,0,1,12,1.34,42.72,42.72,0,0,1,8.7,2.48,32.8,32.8,0,0,1,6.89,4,24.36,24.36,0,0,1,8.56,12.21,31.54,31.54,0,0,1,.51,16.22,41.37,41.37,0,0,1-7.23,16.22,50.16,50.16,0,0,1-13.32,12.4,66.16,66.16,0,0,1-18.22,8,82,82,0,0,1-22.12,2.86q-3,0-5.28-.1t-6.47-.48q12.91-5,19.38-12t8.88-18.51a28.72,28.72,0,0,0,.08-13,14.33,14.33,0,0,0-5.51-8.59,14.66,14.66,0,0,0-5.5-2.58,59,59,0,0,0-8.37-1Z"/><path class="cls-2" d="M898.88,47.65l21,105.89q1,5.34,1.95,8.87a41.3,41.3,0,0,0,2.26,6.39,27.35,27.35,0,0,0,3.31,5.44q2,2.58,5.1,6H867.79a46.55,46.55,0,0,0,8.55-6.39,11.88,11.88,0,0,0,3.13-5.82,18.19,18.19,0,0,0,.33-4.58,65.65,65.65,0,0,0-1-7.44l-2.56-16H831.75l-9.52,16a74.47,74.47,0,0,0-4.22,7.44,23.25,23.25,0,0,0-1.79,5,7.78,7.78,0,0,0,.4,5.15q1,2.1,5.38,6.68H776q4.32-3.44,7.2-6a53.81,53.81,0,0,0,5.28-5.44,59.69,59.69,0,0,0,4.8-6.68q2.39-3.81,5.76-9.73l46.69-78.8q2.28-3.81,3.62-6.11t2.05-3.72a18.73,18.73,0,0,0,1-2.29,16.66,16.66,0,0,0,.49-1.81,8.8,8.8,0,0,0-.58-5.82,22.56,22.56,0,0,0-5.37-6.2h51.94ZM865.49,81.42L842.25,121.3h30.53Z"/><path class="cls-2" d="M992.59,153.36a68.11,68.11,0,0,0-1.34,8.87,30.31,30.31,0,0,0,.21,7.06,19.66,19.66,0,0,0,1.85,5.82,23.32,23.32,0,0,0,3.58,5.15H936.26a38.33,38.33,0,0,0,5.83-4,18.61,18.61,0,0,0,3.87-4.77,31,31,0,0,0,2.84-7q1.18-4.1,2.55-10.59L968.17,74q1-4.58,1.48-7.54a46.56,46.56,0,0,0,.64-5.06,21.77,21.77,0,0,0,0-3.43,13.48,13.48,0,0,0-.67-2.86,10.8,10.8,0,0,0-1.89-4.1,25.71,25.71,0,0,0-3.54-3.34h56.39q10.17,0,17.09.38a95.06,95.06,0,0,1,12,1.34,42.71,42.71,0,0,1,8.7,2.48,32.85,32.85,0,0,1,6.89,4,24.36,24.36,0,0,1,8.56,12.21,31.53,31.53,0,0,1,.51,16.22,41.37,41.37,0,0,1-7.23,16.22,50.15,50.15,0,0,1-13.31,12.4,66.17,66.17,0,0,1-18.22,8,82,82,0,0,1-22.12,2.86q-3,0-5.28-.1t-6.47-.48q12.91-5,19.38-12T1030,92.68a28.7,28.7,0,0,0,.08-13,14.33,14.33,0,0,0-5.51-8.59,14.65,14.65,0,0,0-5.5-2.58,58.89,58.89,0,0,0-8.36-1Z"/><path class="cls-2" d="M1143.32,153.36a66,66,0,0,0-1.32,8.78,35.23,35.23,0,0,0,.13,7,17.76,17.76,0,0,0,1.74,5.82,24.54,24.54,0,0,0,3.75,5.34H1087a35,35,0,0,0,5.85-4.1,20.47,20.47,0,0,0,3.87-4.77,29.54,29.54,0,0,0,2.82-6.87q1.18-4.1,2.54-10.59l17.59-83.57A67.25,67.25,0,0,0,1109,69.6a68.4,68.4,0,0,0-7.61.38,37.32,37.32,0,0,0-6.54,1.33,57.58,57.58,0,0,0-6.79,2.58q-3.63,1.62-8.43,4.29l15.24-31.1,3.56,0.19,23.66,0.38h64.24q6.15,0,9.77-.1a54.51,54.51,0,0,0,5.7-.38l4.7-.67-14.3,31.67q-1.89-5.15-5.83-7.06T1174,69.21a76.88,76.88,0,0,0-13.17,1.15Z"/><path class="cls-2" d="M1260.14,153.36a66,66,0,0,0-1.32,8.78,35.25,35.25,0,0,0,.13,7,17.76,17.76,0,0,0,1.74,5.82,24.54,24.54,0,0,0,3.75,5.34H1203.8a35,35,0,0,0,5.85-4.1,20.48,20.48,0,0,0,3.87-4.77,29.55,29.55,0,0,0,2.82-6.87q1.18-4.1,2.54-10.59l17.59-83.57a67.25,67.25,0,0,0-10.65-.76,68.4,68.4,0,0,0-7.61.38,37.31,37.31,0,0,0-6.54,1.33,57.57,57.57,0,0,0-6.79,2.58q-3.63,1.62-8.43,4.29l15.24-31.1,3.56,0.19,23.66,0.38h64.24q6.15,0,9.77-.1a54.5,54.5,0,0,0,5.7-.38l4.7-.67L1309,78.18q-1.89-5.15-5.83-7.06t-12.42-1.91a76.88,76.88,0,0,0-13.17,1.15Z"/></svg>